<?xml version="1.0" encoding="utf-8"?>
<!-- Generator: Adobe Illustrator 26.5.0, SVG Export Plug-In . SVG Version: 6.00 Build 0)  -->
<svg version="1.1" id="Layer_1" xmlns="http://www.w3.org/2000/svg" xmlns:xlink="http://www.w3.org/1999/xlink" x="0px" y="0px"
	 viewBox="0 0 512 512" style="enable-background:new 0 0 512 512;" xml:space="preserve">
<style type="text/css">
	.st0{fill:#2E3092;}
	.st1{fill:#ED1D24;}
	.st2{fill:#FFFFFF;}
</style>
<g id="XMLID_1_">
	<path id="XMLID_8_" class="st0" d="M40.02,224.29c0-118.5,96.63-215.13,215.13-215.13s215.13,96.49,215.13,215.13
		s-96.49,215.13-215.13,215.13S40.02,342.93,40.02,224.29 M30.91,224.29c0,123.69,100.55,224.25,224.25,224.25
		s224.39-100.55,224.39-224.25S378.84,0.04,255.15,0.04S30.91,100.6,30.91,224.29"/>
	
		<rect id="XMLID_26_" x="21.93" y="384.06" transform="matrix(0.7914 -0.6113 0.6113 0.7914 -228.4582 106.7544)" class="st0" width="40.53" height="8.13"/>
	<path id="XMLID_27_" class="st0" d="M43.11,401.13l6.03,5.19c-1.68,2.24-2.38,4.21-2.24,6.17c0.14,1.96,0.98,3.79,2.66,5.61
		c1.82,1.96,3.65,2.95,5.33,3.23c1.68,0.14,3.09-0.28,4.21-1.26c0.7-0.7,1.12-1.4,1.12-2.24c0.14-0.84-0.14-1.96-0.7-3.37
		c-0.42-0.98-1.54-2.95-3.23-5.89c-2.24-3.93-3.37-7.01-3.37-9.4c-0.14-3.37,0.98-6.03,3.37-8.27c1.54-1.4,3.37-2.38,5.33-2.66
		c2.1-0.42,4.21-0.14,6.45,0.84c2.24,0.98,4.35,2.52,6.45,4.77c3.51,3.65,5.33,7.15,5.47,10.66c0.14,3.37-1.12,6.45-3.65,9.12
		L70.45,408c1.26-1.68,1.82-3.23,1.68-4.77c-0.14-1.4-0.98-3.09-2.52-4.63c-1.68-1.68-3.23-2.8-4.91-3.09
		c-0.98-0.14-1.96,0-2.66,0.84c-0.7,0.7-0.98,1.54-0.98,2.52c0.14,1.4,1.12,3.79,3.23,7.29c2.1,3.51,3.37,6.31,3.93,8.41
		s0.56,4.07,0.14,6.03c-0.56,1.96-1.68,3.79-3.51,5.61c-1.68,1.54-3.65,2.66-6.03,3.09c-2.38,0.42-4.63,0.14-7.01-0.84
		c-2.38-0.98-4.77-2.8-7.15-5.33c-3.51-3.65-5.33-7.43-5.47-10.94C38.76,408.14,40.16,404.64,43.11,401.13"/>
	<path id="XMLID_30_" class="st0" d="M80.69,428.48c-2.8,3.65-4.07,7.01-3.93,10.24c0.14,3.23,1.68,5.75,4.21,7.71
		c2.52,1.96,5.47,2.66,8.55,2.1c3.09-0.56,6.03-2.66,8.98-6.45c2.8-3.65,4.21-7.01,3.93-10.1c-0.14-3.09-1.68-5.61-4.35-7.71
		c-2.66-2.1-5.47-2.8-8.55-2.24C86.44,422.73,83.5,424.83,80.69,428.48 M73.82,423.57c2.52-3.23,5.19-5.61,7.85-7.01
		c1.96-1.12,4.07-1.82,6.45-2.1c2.24-0.28,4.35-0.14,6.31,0.28c2.66,0.7,5.19,2.1,7.85,4.07c4.63,3.65,7.29,7.99,7.85,13.18
		c0.56,5.05-1.26,10.24-5.19,15.43c-4.07,5.19-8.55,8.13-13.6,8.84c-5.05,0.7-9.96-0.7-14.59-4.35c-4.77-3.65-7.43-8.13-7.99-13.18
		C68.21,433.81,69.89,428.62,73.82,423.57"/>
	<path id="XMLID_33_" class="st0" d="M141.27,460.45c1.12-2.24,1.54-4.21,1.12-6.03c-0.42-1.68-1.26-2.95-2.66-3.65
		c-1.26-0.7-2.66-0.7-3.93-0.14c-1.4,0.56-2.66,2.1-3.79,4.35c-1.12,2.38-1.54,4.35-1.26,5.89c0.42,1.54,1.26,2.66,2.66,3.37
		c1.4,0.7,2.8,0.7,4.21,0.14C139.03,463.68,140.29,462.42,141.27,460.45 M117.99,467.75l7.15,2.66c-0.56,1.4-0.56,2.66-0.28,3.65
		c0.42,0.98,1.12,1.82,2.24,2.38c1.4,0.7,2.95,0.7,4.63-0.14s3.65-3.23,6.03-7.29c-2.8,1.12-5.47,1.12-7.99-0.28
		c-2.8-1.4-4.77-3.79-5.75-7.01c-0.98-3.23-0.56-6.59,1.12-10.1c1.82-3.65,4.35-6.03,7.71-7.29c3.37-1.12,6.59-0.84,9.96,0.84
		c3.65,1.82,6.03,4.77,6.87,8.84c0.98,4.07-0.14,9.26-3.51,15.71c-3.37,6.59-6.87,10.8-10.8,12.48c-3.93,1.68-7.85,1.54-11.78-0.42
		c-2.8-1.4-4.77-3.37-5.75-5.75C117.01,473.78,117.01,470.97,117.99,467.75"/>
	<path id="XMLID_36_" class="st0" d="M167.92,462.98c-0.84-0.28-1.82-0.28-2.66,0c-0.84,0.28-1.82,1.12-2.66,2.38
		c-1.12,1.68-2.52,4.77-4.21,9.26c-1.54,4.49-2.52,7.57-2.66,9.4c-0.14,1.82,0,3.23,0.42,3.93c0.56,0.84,1.12,1.4,2.1,1.68
		c0.84,0.28,1.82,0.28,2.66,0c0.84-0.28,1.82-1.12,2.66-2.38c1.12-1.68,2.52-4.77,4.21-9.26c1.54-4.49,2.52-7.57,2.66-9.4
		c0.14-1.82,0-3.23-0.42-3.93C169.6,463.82,168.9,463.26,167.92,462.98 M170.16,456.95c3.65,1.26,6.03,3.65,7.15,7.01
		c1.4,4.07,0.7,9.68-1.82,16.83c-2.66,7.15-5.75,11.92-9.4,14.16c-2.95,1.82-6.31,2.1-9.96,0.84c-3.65-1.4-6.17-3.79-7.43-7.57
		c-1.26-3.65-0.56-9.12,2.1-16.41c2.52-7.15,5.75-11.92,9.4-14.16C163.15,455.83,166.52,455.55,170.16,456.95"/>
	<path id="XMLID_39_" class="st0" d="M196.53,471.53c-0.98-0.14-1.82-0.14-2.66,0.28c-0.84,0.42-1.68,1.4-2.38,2.8
		c-0.98,1.82-1.96,5.05-3.09,9.68c-1.12,4.63-1.54,7.85-1.54,9.68s0.42,3.09,0.98,3.93c0.56,0.7,1.26,1.26,2.24,1.4
		c0.84,0.28,1.82,0.14,2.66-0.28c0.84-0.42,1.68-1.26,2.38-2.66c0.98-1.82,1.96-5.05,3.09-9.68s1.54-7.85,1.54-9.68
		c0-1.82-0.42-3.09-0.98-3.93C198.21,472.23,197.37,471.67,196.53,471.53 M197.93,465.22c3.79,0.84,6.45,2.95,7.99,6.17
		c1.82,3.79,1.82,9.54,0.14,16.97c-1.82,7.43-4.35,12.48-7.57,15.15c-2.8,2.24-6.03,2.8-9.82,1.96c-3.79-0.84-6.59-3.09-8.27-6.59
		c-1.68-3.51-1.68-8.98,0.14-16.55c1.68-7.43,4.21-12.48,7.57-15.15C190.92,464.94,194.15,464.38,197.93,465.22"/>
	<path id="XMLID_40_" class="st0" d="M228.79,511.36l-7.71-0.84l3.23-29.03c-3.09,2.24-6.59,3.93-10.66,4.77l0.84-7.01
		c2.1-0.42,4.49-1.4,7.01-2.95c2.52-1.54,4.49-3.51,5.61-5.89l6.31,0.7L228.79,511.36z"/>
	<path id="XMLID_41_" class="st0" d="M288.81,495.51l8.13,1.82c-0.84,4.49-2.52,7.99-5.05,10.38c-2.66,2.38-6.03,3.79-10.38,4.21
		c-5.33,0.56-9.96-0.84-13.74-4.21c-3.79-3.37-6.03-8.13-6.59-14.44c-0.56-6.73,0.56-12.06,3.79-16.13
		c3.09-4.07,7.43-6.31,13.18-6.87c4.91-0.42,9.12,0.56,12.48,3.23c1.96,1.54,3.65,3.93,4.77,7.01l-7.85,2.66
		c-0.7-2.1-1.82-3.65-3.51-4.63c-1.68-1.12-3.51-1.54-5.75-1.26c-2.95,0.28-5.33,1.54-7.01,3.93s-2.24,5.89-1.82,10.66
		c0.42,5.05,1.68,8.69,3.79,10.66c1.96,1.96,4.49,2.8,7.43,2.52c2.1-0.14,3.93-1.12,5.47-2.52
		C287.41,500.84,288.39,498.46,288.81,495.51"/>
	<path id="XMLID_44_" class="st0" d="M309.84,492.01c0.7,2.8,1.82,4.91,3.51,6.03c1.68,1.26,3.51,1.54,5.47,1.12
		c1.96-0.42,3.51-1.68,4.49-3.37c0.98-1.82,1.12-4.21,0.42-7.01s-1.82-4.77-3.51-6.03c-1.68-1.12-3.51-1.54-5.47-1.12
		c-1.96,0.42-3.37,1.54-4.49,3.37C309.42,486.96,309.14,489.2,309.84,492.01 M301.99,493.55c-0.56-2.52-0.56-5.05,0.14-7.71
		c0.7-2.66,1.96-4.91,3.93-6.59c1.96-1.82,4.35-2.95,7.15-3.65c4.35-0.98,8.13-0.42,11.64,1.68c3.37,2.1,5.61,5.33,6.59,9.68
		c0.98,4.35,0.42,8.27-1.68,11.78c-2.1,3.51-5.33,5.75-9.54,6.73c-2.66,0.56-5.19,0.56-7.85,0c-2.66-0.56-4.91-1.96-6.59-3.93
		C304.09,499.44,302.83,496.78,301.99,493.55"/>
	<path id="XMLID_45_" class="st0" d="M331.44,472.09l6.59-2.66l1.54,3.65c1.26-3.79,3.37-6.45,6.73-7.71
		c1.68-0.7,3.37-0.98,4.91-0.7c1.54,0.14,3.09,0.84,4.49,1.96c0.56-1.96,1.4-3.51,2.52-4.77c1.12-1.26,2.38-2.24,3.93-2.95
		c1.96-0.84,3.79-1.12,5.61-0.84c1.68,0.28,3.23,0.98,4.49,2.24c0.98,0.98,1.96,2.8,3.09,5.33l7.15,17.39l-7.15,2.95l-6.31-15.57
		c-1.12-2.66-2.1-4.35-2.95-4.91c-1.12-0.7-2.24-0.84-3.65-0.28c-0.98,0.42-1.82,1.12-2.52,2.1c-0.56,0.98-0.84,2.1-0.84,3.51
		c0.14,1.4,0.7,3.23,1.68,5.89l5.33,13.04l-7.15,2.95l-6.03-14.87c-1.12-2.66-1.82-4.35-2.38-4.91c-0.56-0.7-1.26-1.12-1.82-1.26
		c-0.7-0.14-1.54,0-2.38,0.28c-1.12,0.42-1.96,1.12-2.66,2.1c-0.7,0.98-0.98,2.1-0.84,3.37c0.14,1.26,0.7,3.23,1.68,5.89l5.33,13.18
		l-7.15,2.95L331.44,472.09z"/>
	<path id="XMLID_48_" class="st0" d="M389.64,461.16c1.68,2.8,3.51,4.63,5.47,5.19c1.96,0.7,3.65,0.56,5.33-0.42
		c1.54-0.98,2.52-2.24,2.8-4.21c0.28-1.82-0.42-4.21-2.1-7.01c-1.54-2.66-3.23-4.35-5.05-4.91c-1.82-0.7-3.51-0.56-5.05,0.42
		c-1.68,0.98-2.66,2.38-2.95,4.35C387.54,456.53,388.1,458.77,389.64,461.16 M375.76,453.02l6.17-3.79l2.24,3.65
		c0-1.82,0.56-3.37,1.4-5.05c0.84-1.68,2.24-2.95,3.93-3.93c2.95-1.68,6.03-2.1,9.54-0.98c3.37,1.12,6.31,3.65,8.84,7.71
		c2.52,4.21,3.51,8.13,2.8,11.64s-2.38,6.17-5.33,7.99c-1.4,0.84-2.8,1.26-4.21,1.4c-1.4,0.14-3.23-0.14-5.33-0.7l7.57,12.62
		l-6.59,3.93L375.76,453.02z"/>
	<path id="XMLID_51_" class="st0" d="M426.53,437.31c-0.56,0.84-1.54,2.1-2.95,3.79c-1.4,1.68-2.24,2.95-2.52,3.65
		c-0.42,1.12-0.14,2.24,0.42,3.09c0.7,0.84,1.54,1.4,2.66,1.4c1.12,0.14,2.24-0.14,3.23-0.98c1.12-0.84,1.82-2.1,2.38-3.51
		c0.28-1.12,0.28-2.24-0.14-3.23c-0.28-0.7-0.98-1.68-2.1-3.23L426.53,437.31z M414.46,438.72l-6.31,3.37
		c-1.12-2.66-1.4-5.19-0.7-7.43c0.7-2.24,2.52-4.63,5.47-6.87c2.66-2.1,5.05-3.37,6.87-3.79c1.82-0.42,3.37-0.28,4.77,0.28
		c1.26,0.56,3.09,2.24,5.05,4.91l5.47,7.15c1.54,1.96,2.8,3.51,3.79,4.21c0.98,0.84,2.1,1.54,3.51,2.24l-6.03,4.77
		c-0.42-0.28-1.12-0.7-1.96-1.4l-0.84-0.56c-0.28,1.82-0.7,3.51-1.54,4.91c-0.84,1.4-1.82,2.66-3.23,3.79
		c-2.38,1.82-4.77,2.66-7.15,2.52c-2.38-0.28-4.35-1.26-5.89-3.23c-0.98-1.26-1.54-2.66-1.82-4.21c-0.14-1.54,0.14-2.95,0.84-4.35
		c0.7-1.4,1.96-3.23,3.79-5.19c2.38-2.8,4.07-4.77,4.77-6.17l-0.42-0.98c-0.84-1.12-1.82-1.82-2.8-1.82c-0.98,0-2.24,0.56-3.93,1.82
		c-1.12,0.84-1.82,1.68-2.1,2.66C413.9,436.19,413.9,437.31,414.46,438.72"/>
	<path id="XMLID_52_" class="st0" d="M467.48,418.38l-5.47,5.47l-10.52-10.52c-2.24-2.24-3.79-3.51-4.63-3.93
		c-0.84-0.42-1.82-0.56-2.66-0.42c-0.84,0.14-1.68,0.56-2.38,1.4c-0.98,0.98-1.54,2.1-1.82,3.37c-0.28,1.26,0,2.52,0.56,3.65
		c0.56,1.12,2.1,2.8,4.35,5.19l9.4,9.4l-5.47,5.47l-20.76-20.76l5.05-5.05l3.09,3.09c-0.56-4.21,0.56-7.57,3.37-10.38
		c1.26-1.26,2.52-2.1,3.93-2.66c1.4-0.56,2.8-0.84,3.93-0.56c1.26,0.14,2.38,0.56,3.37,1.26c1.12,0.7,2.38,1.82,3.93,3.37
		L467.48,418.38z"/>
	<path id="XMLID_53_" class="st0" d="M448.68,395.66l5.05-6.45l20.76,7.29l-12.2-18.23l4.91-6.31l15.85,25.52l2.95,4.63
		c0.98,1.54,1.54,2.95,1.96,3.93c0.28,0.98,0.42,2.1,0.42,3.09c0,0.98-0.28,1.96-0.84,3.09c-0.42,1.12-1.12,2.24-2.1,3.37
		c-0.84,1.12-1.96,2.24-3.09,3.23l-5.19-3.23c0.98-0.84,1.68-1.54,2.24-2.38c1.12-1.4,1.54-2.8,1.26-4.07
		c-0.28-1.4-0.98-2.66-1.96-4.07L448.68,395.66z"/>
	<path id="XMLID_61_" class="st1" d="M301.85,121.21l-46.14,46.42l-48.1-47.54L48.86,277.58h159.59l47.4-47.54L302.27,278h159.17
		L301.85,121.21z M153.76,270.01H68.77l138.84-138.14l41.65,40.95L153.76,270.01z M261.74,225.13l65.07-65.07l114.44,109.95
		l-134.49-0.14L261.74,225.13z"/>
	<polygon id="XMLID_62_" class="st2" points="208.31,265.94 204.66,269.45 186.15,250.37 191.06,245.6 209.43,254.72 200.74,236.07 
		205.65,231.3 224.3,250.51 220.65,254.02 207.19,240 215.88,258.65 213.08,261.31 194.71,252.2 	"/>
	<polygon id="XMLID_63_" class="st2" points="239.44,235.79 229.07,245.75 210.55,226.67 220.93,216.58 224.16,219.94 
		217.57,226.39 221.77,230.74 228.36,224.29 231.59,227.65 225,234.11 229.63,238.87 236.22,232.42 	"/>
	<path id="XMLID_64_" class="st2" d="M249.12,200.17l-4.63,4.49c-1.26-0.14-2.38-0.14-3.51,0.28c-1.12,0.42-2.1,0.98-3.09,1.96
		c-0.84,0.7-1.4,1.68-1.82,2.52c-0.42,0.98-0.7,1.96-0.56,3.09c0,1.12,0.14,2.24,0.56,3.23c0.42,1.12,0.98,1.96,1.82,2.8
		c1.68,1.82,3.65,2.66,5.89,2.8c2.24,0.14,4.21-0.7,5.89-2.24c0.98-0.98,1.54-1.82,1.96-2.95c0.42-1.12,0.56-2.1,0.28-3.23
		l4.63-4.49c0.98,2.8,1.26,5.47,0.7,7.85c-0.56,2.38-1.82,4.63-3.93,6.59c-1.4,1.4-3.09,2.38-4.77,3.09
		c-1.82,0.56-3.65,0.84-5.61,0.7c-1.68-0.14-3.37-0.56-4.91-1.26c-1.54-0.7-2.95-1.68-4.21-3.09c-1.26-1.26-2.24-2.8-2.95-4.49
		s-0.98-3.51-0.98-5.47c0-1.82,0.42-3.51,1.12-5.05c0.7-1.54,1.68-2.95,2.95-4.21c2.1-1.96,4.35-3.23,6.87-3.79
		C243.51,198.76,246.18,199.04,249.12,200.17"/>
	<path id="XMLID_67_" class="st2" d="M255.99,201.15c-0.98-1.12-1.82-2.24-2.52-3.37c-0.7-1.26-0.98-2.52-1.26-3.79
		c-0.42-2.24-0.28-4.49,0.42-6.59c0.7-2.24,1.82-4.07,3.65-5.75c1.26-1.26,2.66-2.1,4.35-2.8c1.68-0.7,3.37-0.98,5.19-0.98
		c1.82,0,3.65,0.42,5.33,1.12c1.68,0.7,3.09,1.68,4.49,3.09c1.26,1.4,2.38,2.8,3.09,4.49c0.7,1.68,0.98,3.37,0.98,5.19
		s-0.28,3.65-0.98,5.33c-0.7,1.68-1.68,3.23-3.09,4.49c-1.4,1.4-2.95,2.38-4.63,3.09c-1.68,0.7-3.51,0.98-5.33,0.84
		c-1.82-0.14-3.51-0.56-5.19-1.26C258.8,203.53,257.25,202.41,255.99,201.15 M259.78,197.22c0.84,0.84,1.68,1.54,2.66,1.82
		c0.98,0.42,1.96,0.7,3.09,0.84c1.26,0.14,2.38-0.14,3.37-0.42c1.12-0.42,1.96-0.98,2.8-1.68c1.68-1.68,2.52-3.65,2.52-5.89
		c0-2.24-0.84-4.35-2.66-6.03c-1.54-1.68-3.51-2.52-5.75-2.52s-4.21,0.7-5.75,2.24c-1.68,1.68-2.52,3.51-2.66,5.89
		C257.39,193.58,258.24,195.54,259.78,197.22"/>
	<polygon id="XMLID_68_" class="st2" points="292.74,184.18 288.95,187.83 270.44,168.61 273.94,165.25 293.72,169.73 
		281.94,157.53 285.58,153.89 304.09,173.1 300.73,176.47 280.53,171.56 	"/>
	<path id="XMLID_69_" class="st1" d="M270.3,293.57c1.54,0.28,2.95,0.42,4.07,0.56h2.8c3.23,0.14,5.75-0.7,7.71-2.24
		c1.96-1.68,3.09-3.93,3.37-6.87h-3.65h-2.66c-0.14,1.12-0.28,2.1-0.56,2.95c-0.84,1.26-1.96,2.38-3.51,3.23
		c-0.7,0.28-1.4,0.56-1.96,0.56c-0.7-0.14-1.4-0.28-1.96-0.56l-1.82-1.12c-1.54-1.54-2.38-3.23-2.38-4.91h-3.65h-2.66
		c0.42,1.68,0.84,3.09,1.26,3.93C265.95,291.18,267.77,292.73,270.3,293.57"/>
	<path id="XMLID_95_" class="st1" d="M210.97,312.08h-9.96v-11.5h9.96V312.08z M288.39,298.06h-2.1H269.6h-1.26h-45.58h-0.84h-3.37
		l-14.3-16.27h-2.8l-2.52,2.52l14.44,13.74h-27.49v2.66h8.84v11.5h-2.95l-0.7,0.14l-0.42,0.14l-0.84,0.56l-0.28,0.84
		c0.14,0.84,0.7,1.82,1.68,2.95c0.98,1.12,1.82,1.96,2.52,2.66c0.7,0.56,0.98,0.84,0.98,0.98c0.7,0.42,1.26,0.7,1.68,0.7h2.8
		l0.98-0.14l0.56-0.42l0.14-0.42v-0.7v-4.49h9.96v16.27h6.45v-30.57h4.35h0.84h20.33v15.99c0,0.84-0.56,1.68-1.54,2.66l-0.98,0.84
		l-1.4,0.84c-0.42,0.28-0.84,0.42-1.4,0.42c-0.56-0.14-1.12-0.28-1.68-0.56l-1.26-1.12c-0.98-1.26-1.54-2.66-1.54-4.35
		c0-1.4,0.42-2.8,1.26-4.07c0.84-1.26,1.96-2.1,3.51-2.38l0.42,0.14l0.42,0.14l0.42,0.14l0.7,0.28h2.8v-2.66
		c-0.56-0.28-0.98-0.28-1.4-0.42c-0.56-0.14-0.98-0.28-1.26-0.28h-3.93c-0.56,0-0.98,0-1.4,0.14c-2.38,0.28-4.35,1.26-5.89,2.8
		c-1.54,1.68-2.24,3.51-2.24,5.89c0,1.26,0.14,2.52,0.56,3.51c1.82,3.51,5.05,5.33,9.4,5.33h2.8l1.82-0.14
		c0.56-0.14,1.12-0.28,1.82-0.56v7.85h6.45v-13.74c0-0.56,0.14-1.4,0.56-2.38c0.56-0.98,0.98-1.82,1.68-2.52
		c1.4-1.54,2.66-2.38,3.93-2.66l1.4,0.56c0.56,0.42,1.12,0.98,1.68,1.68c0.42,1.26,0.7,2.38,0.7,3.09c0,1.82-1.12,4.07-3.09,6.73
		c-1.54,1.82-2.52,2.8-2.8,2.95l-0.42,0.28l2.95,2.1h2.8l2.1-2.1l1.54-1.82c2.52-2.8,3.65-5.33,3.65-7.85
		c0-1.12-0.28-2.24-0.84-3.23c-0.84-1.96-2.52-3.37-5.05-4.35c-1.26-0.56-2.52-0.7-3.79-0.7h-2.8l-1.4,0.14l-1.4,0.42l-1.4,0.7V301
		h18.79h1.26h5.61v30.57h6.45V301H286h2.1h23.98v8.84h-19.21h-0.84l-0.7,0.28c-0.7,0.42-1.12,0.98-1.12,1.82
		c0.14,0.42,0.42,0.98,0.84,1.68c0.84,1.26,1.54,2.24,2.24,2.95l2.52,2.52c0.7,0.56,1.26,0.7,1.54,0.7h2.8l0.7-0.14l0.56-0.42
		l0.14-0.42l0.14-0.84v-5.61h10.24v19.07h6.45v-30.57h5.75v-2.81H288.39L288.39,298.06z"/>
</g>
</svg>
